PathFileType	4	(X/Y/Z)	/Users/rkoike/Documents/python/sports2d/worker-zone-detection_Sports2D/worker-zone-detection_Sports2D_px_person00.trc
DataRate	CameraRate	NumFrames	NumMarkers	Units	OrigDataRate	OrigDataStartFrame	OrigNumFrames
60	60	12	22	m	60	2843	4549
Frame#	Time	Hip			RHip			RKnee			RAnkle			RBigToe			RSmallToe			RHeel			LHip			LKnee			LAnkle			LBigToe			LSmallToe			LHeel			Neck			Head			Nose			RShoulder			RElbow			RWrist			LShoulder			LElbow			LWrist			
		X1	Y1	Z1	X2	Y2	Z2	X3	Y3	Z3	X4	Y4	Z4	X5	Y5	Z5	X6	Y6	Z6	X7	Y7	Z7	X8	Y8	Z8	X9	Y9	Z9	X10	Y10	Z10	X11	Y11	Z11	X12	Y12	Z12	X13	Y13	Z13	X14	Y14	Z14	X15	Y15	Z15	X16	Y16	Z16	X17	Y17	Z17	X18	Y18	Z18	X19	Y19	Z19	X20	Y20	Z20	X21	Y21	Z21	X22	Y22	Z22
2843	47.38333333333333	551.0017384830238	122.46217133163941	0.0	570.0821406666003	134.510860181317	0.0	566.917890965365	194.47790955950074	0.0	553.9210859814492	290.2276176766279	0.0	578.0027173471073	329.21803259315305	0.0	574.6093117735577	316.69528568436124	0.0	550.0536223423817	315.5022673633236	0.0	589.5180953308287	127.29349743223842	0.0	572.697333193798	206.28169620957067	0.0	560.4194884686042	295.5330018363409	0.0	587.6061167446653	324.6908614829935	0.0	582.7747906472686	326.83199593826924	0.0	590.7111136614725	316.6952856875633	0.0	555.4025129816433	26.653210423680523	0.0	601.8551928468548	-13.759378699004795	0.0	610.5539825641073	68.10466110360832	0.0	557.5593937450006	48.59370732765851	0.0	571.0302568040404	75.30627753179758	0.0	581.5817723326344	108.746406105012	0.0	601.8551928436525	42.095304837301676	0.0	585.9390403613113	60.87155204004448	0.0	573.8903515148359	95.74960112750024	0.0
2844	47.4	554.511255648191	121.53863202568039	0.0	571.1216334014058	134.30553021874752	0.0	568.2587875190352	188.94569010883583	0.0	555.5460718115424	285.0300889282026	0.0	577.3967175195625	323.16823603080337	0.0	576.3889925944804	310.42842908504093	0.0	554.565438130151	308.6545818606318	0.0	592.6764939926751	126.14823389599765	0.0	572.8142069001641	199.88455858469115	0.0	561.9024296625784	289.612599551215	0.0	589.1017082947449	317.90087683592174	0.0	584.492106426235	319.62054157475643	0.0	594.4503412225056	310.42842908684804	0.0	552.9790110459223	27.940020248089933	0.0	601.1024841884849	-10.116853128860008	0.0	606.6927197275442	70.82322543404024	0.0	558.3818264484153	48.071001213660864	0.0	571.0674509176387	75.29737108590399	0.0	582.7182592054395	107.02497785731589	0.0	601.1024841866777	41.714643360818	0.0	587.3549523158333	58.98277844401842	0.0	574.5880541245733	94.3122621534371	0.0
2845	47.416666666666664	557.9778009888191	120.95673457001202	0.0	571.2164910005938	133.8142528659386	0.0	569.3702884418573	183.3589308596199	0.0	556.9660835259157	279.8067918103162	0.0	576.7386233856128	317.0194065499613	0.0	577.9769975366495	304.3885449458862	0.0	558.4311143673165	301.98393830794987	0.0	595.4170724180846	124.98088707929517	0.0	572.9411275696685	193.35852913465052	0.0	563.1681859827712	283.60428762774785	0.0	590.3812024496165	310.2589000131622	0.0	586.3570499410772	312.2101932711136	0.0	597.8216790582521	304.3885449466299	0.0	550.6918394093855	30.103147667727804	0.0	599.59573995657	-6.429497003055563	0.0	602.154861619247	72.47319836624641	0.0	558.5856293935442	47.92439426798595	0.0	570.7631776213527	75.36406742370824	0.0	583.9524433046278	105.92126632874412	0.0	599.5957399558263	41.72229181038692	0.0	588.2032525027879	57.69733585190868	0.0	575.345734207605	93.51706141428953	0.0
2846	47.43333333333333	561.3484716390126	120.58415917957791	0.0	570.7636066765091	133.16782747576335	0.0	570.3264675858451	177.85515870983804	0.0	558.2385610278891	274.67565646591447	0.0	576.0639173477272	310.9393761386388	0.0	579.4217088277053	298.6035887118281	0.0	561.8442333770336	295.55230074879046	0.0	597.8600721807994	123.82470536452884	0.0	573.0712520323591	186.89177730434037	0.0	564.2825143067113	277.66832178149076	0.0	591.5096153852453	302.28127398733886	0.0	588.2690692003986	304.83680021214724	0.0	600.9113601441495	298.6035887119321	0.0	548.5303127527729	32.72826709153391	0.0	597.684204238415	-2.791809974002783	0.0	597.3190780734934	73.47193729473037	0.0	558.4278192492822	47.99809718635545	0.0	570.267844938384	75.47307913384807	0.0	585.2177812375687	105.19708378983337	0.0	597.6842042383109	41.95414390742937	0.0	588.7062082914783	56.78683491158713	0.0	576.1225399953968	93.109177232085	0.0
2847	47.45	564.557329425879	120.31704589626246	0.0	570.0854016045546	132.47595917834226	0.0	571.1802809562103	172.58318363973638	0.0	559.4008851871359	269.76714352654625	0.0	575.4058232203365	305.10533083583897	0.0	580.7520262160525	293.13617630979167	0.0	564.9368469392601	289.45412893476936	0.0	600.0852754917684	122.71445516246806	0.0	573.1981727097872	180.68053203454096	0.0	565.2905830719553	271.9747940367195	0.0	592.5314219858793	294.43870622452954	0.0	590.1340127194859	297.7412360865467	0.0	603.7673228662268	293.13617630960357	0.0	546.5008286847785	35.46386624183211	0.0	595.6620848972209	0.6949552023289594	0.0	592.5235324126188	74.14825659993754	0.0	558.1162470792594	48.16627441339168	0.0	569.7058840913613	75.59687208410034	0.0	586.4519653440872	104.66584399500454	0.0	595.662084897409	42.27657652876033	0.0	589.0391333670776	56.07386405197578	0.0	576.8802200848096	92.88644822555347	0.0
2848	47.46666666666667	567.4905034750013	120.09755180857098	0.0	569.3958649742913	131.8219881857303	0.0	571.9448343960773	167.75500941895496	0.0	560.4495278988397	265.2736600069803	0.0	574.7998234040599	299.7595795015311	0.0	581.9553639208273	288.14970806368785	0.0	567.7196333554384	283.88683178794423	0.0	602.090987909642	121.69689372166494	0.0	573.3150464297661	174.98743964148102	0.0	566.1971811478455	266.7584369807584	0.0	593.4506704190967	287.2000805552535	0.0	591.8513285057451	291.23382695107574	0.0	606.3538641846122	288.1497080634299	0.0	544.6536698904955	38.03106440836319	0.0	593.7566900037453	3.88883973408091	0.0	588.0859264620459	74.68915051594047	0.0	557.7859935374794	48.34761351827702	0.0	569.166735094112	75.71566772987572	0.0	587.5884522294856	104.224804094726	0.0	593.7566900040034	42.59996026952909	0.0	589.3023590829272	55.46547880122918	0.0	577.5779227055099	92.72949759697188	0.0
2849	47.483333333333334	569.9840576183809	119.90875065135056	0.0	568.8158943141981	131.26795851242719	0.0	572.59621899995	163.6512910460847	0.0	561.3422366882991	261.4542500152962	0.0	574.2850471467542	295.21619695263837	0.0	582.9794808520919	283.9096018657318	0.0	570.0892831682405	279.1533311697416	0.0	603.7986173305445	120.83208388611587	0.0	573.4143266857245	170.1490026626145	0.0	566.9692278444504	262.3249704758917	0.0	594.2334631646116	281.05261041496215	0.0	593.3101299296293	285.7036555615269	0.0	608.5548880258837	283.90960186551456	0.0	543.0826488161598	40.2075412295976	0.0	592.1419666243607	6.60343261671877	0.0	584.3182533807045	75.15588527537732	0.0	557.5092992281596	48.499306541922365	0.0	568.7106687645555	75.81615463712194	0.0	588.5538592332049	103.84588486823644	0.0	592.141966624578	42.87231538598818	0.0	589.5298052430087	54.944405384065035	0.0	578.1705973817147	92.59190255615054	0.0
2850	47.5	571.8748934069644	119.75752596837064	0.0	568.3988433158144	130.8548809114654	0.0	573.0953528216752	160.54246779693784	0.0	562.0236834493398	258.560212932549	0.0	573.8961496464102	291.77522105111467	0.0	583.7602023897689	280.69070889304544	0.0	571.9005789780069	275.56169401133235	0.0	605.1027443109807	120.17718855834678	0.0	573.489329841176	166.4851222881275	0.0	567.5595181357203	258.9670327374999	0.0	594.8318717626714	276.4138619773021	0.0	594.4122091725535	281.5171912882559	0.0	610.2317591922689	280.69070889290356	0.0	541.8887581571048	41.83617776850175	0.0	590.9361590806947	8.659698006286888	0.0	581.4789261429959	75.53506240401242	0.0	557.3143311583113	48.605314654901825	0.0	568.3731577449133	75.890511067445	0.0	589.2831942905573	103.54399892844647	0.0	590.9361590808367	43.06947996866317	0.0	589.7156996661256	54.53512636092439	0.0	578.6183447228889	92.47232955582702	0.0
2851	47.516666666666666	573.0945028598616	119.65353343746196	0.0	568.1480398477191	130.59407468204702	0.0	573.4214586775811	158.53963124618394	0.0	562.4668382646073	256.6952738748053	0.0	573.6464688070789	289.5591351145234	0.0	584.26709381832	278.61155428556316	0.0	573.0804236916173	273.24322935142004	0.0	605.9513245154216	119.75547912568388	0.0	573.5374835343371	164.1259267253046	0.0	567.9441484712028	256.8042591474026	0.0	595.2217142315836	273.44008114399503	0.0	595.1197685432892	278.82248524652704	0.0	611.3196494493479	278.6115542854907	0.0	541.1166029692386	42.86924485661213	0.0	590.1733055307847	9.984264864418513	0.0	579.6616657925032	75.79985386361578	0.0	557.2004590190476	48.666471296696656	0.0	568.1621190160356	75.9369974729912	0.0	589.7514436090017	103.3376276742862	0.0	590.1733055308573	43.189161090173435	0.0	589.8463497131377	54.25980636012025	0.0	578.90580846848	92.38300726116698	0.0
2852	47.53333333333333	573.7222395500086	119.59561918078572	0.0	568.0313323443521	130.4636695732938	0.0	573.5921360780497	157.51038984344558	0.0	562.697390425924	255.73657200924404	0.0	573.5187480599387	288.4208089658884	0.0	584.5302495542753	277.53941094351103	0.0	573.695544290439	272.048670293385	0.0	606.3931288768563	119.53890372693805	0.0	573.5621158838688	162.91439484554263	0.0	568.1447632520232	255.69320418526587	0.0	595.4249952064985	271.9218917559896	0.0	595.4817106603217	277.4393276657335	0.0	611.8838695269101	277.53941094348676	0.0	540.7177552611324	43.389115069145404	0.0	589.7908034545441	10.664835223109767	0.0	578.7359341363508	75.94989842290914	0.0	557.1499343220709	48.69303679346495	0.0	568.0580276039459	75.95992111816707	0.0	589.9909700101476	103.22348050825806	0.0	589.7908034545684	43.245663967389795	0.0	589.9209069265272	54.11038942540724	0.0	579.0528565339948	92.32873485608316	0.0
2853	47.55	573.9362736163663	119.57235259753486	0.0	568.0014700159413	130.4222803048546	0.0	573.6526000005432	157.1607611165855	0.0	562.777972035181	255.4106442925475	0.0	573.4758343856778	288.03452818861064	0.0	584.6217858378368	277.1722503522752	0.0	573.9115733583193	271.6403784976598	0.0	606.5478073834073	119.46544459657724	0.0	573.5703922576242	162.50351722732393	0.0	568.2152860178587	255.31608642060573	0.0	595.4964138031906	271.4142123667133	0.0	595.6033218041503	276.9707844793714	0.0	612.0796792380297	277.1722503522774	0.0	540.5806270028138	43.55686484100968	0.0	589.6685182037362	10.895930557878476	0.0	578.4280088796249	76.01209009100717	0.0	557.1391921795965	48.69815507884429	0.0	568.0261702739864	75.96693273515102	0.0	590.0714499495396	103.17820290658621	0.0	589.668518203734	43.26084109616413	0.0	589.9521918195571	54.05326131860078	0.0	579.1022641122396	92.30357494122768	0.0
2854	47.56666666666666	573.9217796722162	119.5696664442269	0.0	568.0155150007071	130.42880461530746	0.0	573.6512531813878	157.18601479453372	0.0	562.774902942789	255.4338689293275	0.0	573.4795082212346	288.0629196449874	0.0	584.6177789168719	277.19517544017896	0.0	573.9045676046728	271.66682482397607	0.0	606.542224354111	119.4708849135519	0.0	573.5696837182069	162.53401441688015	0.0	568.2130780620696	255.34369343238052	0.0	595.4941291554213	271.4606557288105	0.0	595.5929106861084	277.006218412532	0.0	612.0705749703518	277.1951754401915	0.0	540.5885370485116	43.53399630501971	0.0	589.6866460146618	10.879127488062396	0.0	578.4581998220156	76.0212353212017	0.0	557.1477707958483	48.69303889971914	0.0	568.0327270682384	75.96548395929216	0.0	590.0645600699308	103.17357162322809	0.0	589.6866460146493	43.25486378042578	0.0	589.9571725054776	54.04964455580615	0.0	579.0980343344096	92.29722138465343	0.0
